# xmcd CD database file
#
# Track frame offsets:
#	150
#	16937
#	30907
#	52558
#	67677
#	78744
#	93605
#	116254
#	129039
#	141310
#	159379
#
# Disc length: 2276 seconds
#
# Revision: 0
# Processed by: cddbd v1.5.2PL0 Copyright (c) Steve Scherf et al.
# Submitted via: CDex 1.51
#
DISCID=7508e20b
DTITLE=Eric and Suzy Thompson - Dream Shadows
DYEAR=2008
DGENRE=Country
TTITLE0=Little Bitty Mama
TTITLE1=Beaver Slide Rag
TTITLE2=Midnight on the Water - K. C. Railroad Blues
TTITLE3=Last Kind Word
TTITLE4=Gasport Two-Step
TTITLE5=Dream Shadows
TTITLE6=Lloyd Bateman
TTITLE7=Yearlings in the Canebrake - Burt Anderson
TTITLE8=Valse de Vieux Temps
TTITLE9=Motherless Child
TTITLE10=Old Greasy Coat
EXTD=YEAR: 2008
EXTT0=
EXTT1=
EXTT2=
EXTT3=
EXTT4=
EXTT5=
EXTT6=
EXTT7=
EXTT8=
EXTT9=
EXTT10=
PLAYORDER=
